<?xml version="1.0" encoding="iso-8859-1"?>
<!-- Generator: Adobe Illustrator 18.0.0, SVG Export Plug-In . SVG Version: 6.00 Build 0)  -->
<!DOCTYPE svg PUBLIC "-//W3C//DTD SVG 1.1//EN" "http://www.w3.org/Graphics/SVG/1.1/DTD/svg11.dtd">
<svg version="1.1" id="Capa_1" xmlns="http://www.w3.org/2000/svg" xmlns:xlink="http://www.w3.org/1999/xlink" x="0px" y="0px"
	 viewBox="0 0 297 297" style="enable-background:new 0 0 297 297;" xml:space="preserve">
<g>
	<g>
		<path style="fill:#345065;" d="M215.134,55.071C208.997,23.79,181.364,0,148.313,0c-33.679,0-61.346,24.758-67.141,56.856
			c-4.584,25.389-19.556,101.329-19.556,101.329c-0.857,4.406,2.021,8.673,6.428,9.529c0.524,0.102,1.045,0.152,1.56,0.152
			c3.812,0,7.215-2.697,7.97-6.579l11.584-59.593c11.729,20.557,33.843,34.455,59.157,34.455c25.514,0,47.783-14.117,59.437-34.942
			l11.678,60.08c0.754,3.884,4.156,6.579,7.97,6.579c0.514,0,1.036-0.05,1.56-0.152c4.406-0.856,7.285-5.123,6.428-9.529
			C235.385,158.185,220.192,80.851,215.134,55.071z M148.313,119.892c-28.572,0-51.818-23.246-51.818-51.818
			s23.246-51.818,51.818-51.818s51.818,23.246,51.818,51.818S176.885,119.892,148.313,119.892z"/>
	</g>
	<g>
		<path style="fill:#C63C22;" d="M93.362,170.678c1.99-10.236-4.695-20.148-14.932-22.137l-12.301-2.391
			c-10.236-1.99-20.148,4.695-22.137,14.932l-1.535,7.896l49.37,9.597L93.362,170.678z"/>
	</g>
	<g>
		<path style="fill:#E04332;" d="M42.458,168.977L22.408,272.121c-1.99,10.236,4.695,20.148,14.932,22.137l12.301,2.391
			c10.236,1.99,20.148-4.695,22.137-14.932l20.049-103.144L42.458,168.977z"/>
	</g>
	<g style="opacity:0.63;">
		<path style="fill:#C63C22;" d="M52.375,163.113c1.99-10.237,11.901-16.922,22.137-14.932l7.623,1.482
			c-1.172-0.49-2.409-0.871-3.705-1.123l-12.3-2.391c-10.236-1.99-20.148,4.695-22.137,14.932l-1.535,7.896l8.458,1.644
			L52.375,163.113z"/>
	</g>
	<g style="opacity:0.63;">
		<path style="fill:#E04332;" d="M30.908,273.549l20.007-102.928l-8.458-1.644L22.408,272.121
			c-1.99,10.236,4.695,20.148,14.932,22.137l5.208,1.012C34.172,291.791,29.11,282.799,30.908,273.549z"/>
	</g>
	<g>
		<path style="fill:#C63C22;" d="M203.638,170.678c-1.99-10.236,4.695-20.148,14.932-22.137l12.301-2.391
			c10.236-1.99,20.148,4.695,22.137,14.932l1.535,7.896l-49.37,9.597L203.638,170.678z"/>
	</g>
	<g>
		<path style="fill:#E04332;" d="M254.542,168.977l20.049,103.144c1.99,10.236-4.695,20.148-14.932,22.137l-12.301,2.391
			c-10.236,1.99-20.148-4.695-22.137-14.932l-20.049-103.144L254.542,168.977z"/>
	</g>
	<g style="opacity:0.63;">
		<path style="fill:#C63C22;" d="M220.67,148.786c10.237-1.99,20.148,4.695,22.138,14.932l1.412,7.265l10.322-2.007l-1.535-7.896
			c-1.99-10.237-11.901-16.922-22.137-14.932l-12.3,2.391c-1.635,0.318-3.167,0.857-4.6,1.548L220.67,148.786z"/>
	</g>
	<g style="opacity:0.63;">
		<path style="fill:#E04332;" d="M274.592,272.121l-20.049-103.145l-10.322,2.007l20.102,103.419
			c1.707,8.783-2.752,17.289-10.308,20.954l5.645-1.097C269.896,292.269,276.581,282.358,274.592,272.121z"/>
	</g>
	<g style="opacity:0.26;">
		<g>
			<path style="fill:#345065;" d="M145.582,16.329c-0.904-0.047-1.815-0.073-2.731-0.073c-28.572,0-51.818,23.246-51.818,51.818
				s23.246,51.818,51.818,51.818c0.916,0,1.826-0.026,2.731-0.073c-27.308-1.425-49.087-24.089-49.087-51.745
				S118.274,17.754,145.582,16.329z"/>
		</g>
		<g>
			<path style="fill:#345065;" d="M148.313,0c-0.916,0-1.823,0.033-2.731,0.069c36.274,1.44,65.344,31.384,65.344,68.005
				s-29.07,66.565-65.344,68.005c0.907,0.036,1.815,0.069,2.731,0.069c37.537,0,68.074-30.538,68.074-68.074S185.849,0,148.313,0z"
				/>
		</g>
	</g>
</g>
<g>
</g>
<g>
</g>
<g>
</g>
<g>
</g>
<g>
</g>
<g>
</g>
<g>
</g>
<g>
</g>
<g>
</g>
<g>
</g>
<g>
</g>
<g>
</g>
<g>
</g>
<g>
</g>
<g>
</g>
</svg>
